<svg width="416" height="266" viewBox="0 0 416 266" fill="none" xmlns="http://www.w3.org/2000/svg">
<path d="M307.026 80.1133H225.405C223.727 80.1133 222.367 81.5718 222.367 83.3711V138.539C222.367 140.338 223.727 141.797 225.405 141.797H307.026C308.704 141.797 310.064 140.338 310.064 138.539V83.3711C310.064 81.5718 308.704 80.1133 307.026 80.1133Z" fill="#8DBEFF"/>
<mask id="mask0_375_20410" style="mask-type:luminance" maskUnits="userSpaceOnUse" x="222" y="80" width="89" height="62">
<path d="M307.026 80.1133H225.405C223.727 80.1133 222.367 81.5718 222.367 83.3711V138.539C222.367 140.338 223.727 141.797 225.405 141.797H307.026C308.704 141.797 310.064 140.338 310.064 138.539V83.3711C310.064 81.5718 308.704 80.1133 307.026 80.1133Z" fill="white"/>
</mask>
<g mask="url(#mask0_375_20410)">
<path d="M218.919 113.922C220.643 80.1733 247.849 82.212 244.209 78.8297C240.569 75.4473 219.677 73.0508 219.677 73.0508L217.003 87.1595" fill="#59A0FF"/>
</g>
<path d="M305.547 83.5977H226.884C226.259 83.5977 225.752 84.1412 225.752 84.8117V136.863C225.752 137.534 226.259 138.077 226.884 138.077H305.547C306.172 138.077 306.679 137.534 306.679 136.863V84.8117C306.679 84.1412 306.172 83.5977 305.547 83.5977Z" fill="white"/>
<mask id="mask1_375_20410" style="mask-type:luminance" maskUnits="userSpaceOnUse" x="225" y="83" width="82" height="56">
<path d="M305.547 83.5977H226.884C226.259 83.5977 225.752 84.1412 225.752 84.8117V136.863C225.752 137.534 226.259 138.077 226.884 138.077H305.547C306.172 138.077 306.679 137.534 306.679 136.863V84.8117C306.679 84.1412 306.172 83.5977 305.547 83.5977Z" fill="white"/>
</mask>
<g mask="url(#mask1_375_20410)">
<path d="M241.629 139.346C230.223 134.621 305.125 140.287 305.902 129.646C306.679 119.004 310.98 120.976 310.98 120.976L312.416 149.415L267.526 149.826" fill="#EEF6FF"/>
<path d="M295.37 104.816H253.768C253.17 104.816 252.686 105.336 252.686 105.977V106.91C252.686 107.551 253.17 108.071 253.768 108.071H295.37C295.968 108.071 296.452 107.551 296.452 106.91V105.977C296.452 105.336 295.968 104.816 295.37 104.816Z" fill="#DAE9FF"/>
<path d="M267.603 109.738H253.768C253.17 109.738 252.686 110.258 252.686 110.899V111.783C252.686 112.424 253.17 112.944 253.768 112.944H267.603C268.201 112.944 268.685 112.424 268.685 111.783V110.899C268.685 110.258 268.201 109.738 267.603 109.738Z" fill="#DAE9FF"/>
<path d="M285.363 109.738H271.528C270.931 109.738 270.446 110.258 270.446 110.899V111.783C270.446 112.424 270.931 112.944 271.528 112.944H285.363C285.961 112.944 286.446 112.424 286.446 111.783V110.899C286.446 110.258 285.961 109.738 285.363 109.738Z" fill="#DAE9FF"/>
</g>
<path d="M245.886 105.41L248.806 105.841C249.048 105.876 249.251 106.046 249.329 106.28C249.406 106.516 249.343 106.772 249.168 106.947L247.051 109.023L247.551 112.002C247.591 112.246 247.492 112.494 247.288 112.638C247.087 112.782 246.821 112.801 246.604 112.685L243.994 111.293L241.387 112.685C241.168 112.801 240.902 112.782 240.7 112.638C240.499 112.494 240.398 112.246 240.44 112.002L240.94 109.023L238.822 106.947C238.647 106.772 238.585 106.516 238.662 106.28C238.739 106.046 238.941 105.876 239.185 105.841L242.103 105.41L243.411 102.721C243.519 102.498 243.746 102.355 243.994 102.355C244.244 102.355 244.472 102.498 244.58 102.721L245.886 105.41Z" fill="#367DFE"/>
<path d="M250.647 78.6367H281.784C281.941 78.6367 282.091 78.7034 282.201 78.822C282.312 78.9406 282.374 79.1015 282.374 79.2692V83.6403C282.374 84.3379 282.116 85.007 281.656 85.5003C281.196 85.9936 280.572 86.2708 279.921 86.2708H252.51C251.859 86.2708 251.236 85.9936 250.776 85.5003C250.316 85.007 250.057 84.3379 250.057 83.6403V79.2693C250.057 79.1015 250.119 78.9406 250.23 78.822C250.34 78.7034 250.49 78.6367 250.647 78.6367Z" fill="#59A0FF"/>
<mask id="mask2_375_20410" style="mask-type:luminance" maskUnits="userSpaceOnUse" x="250" y="78" width="33" height="9">
<path d="M250.647 78.6367H281.784C281.941 78.6367 282.091 78.7034 282.201 78.822C282.312 78.9406 282.374 79.1015 282.374 79.2692V83.6403C282.374 84.3379 282.116 85.007 281.656 85.5003C281.196 85.9936 280.572 86.2708 279.921 86.2708H252.51C251.859 86.2708 251.236 85.9936 250.776 85.5003C250.316 85.007 250.057 84.3379 250.057 83.6403V79.2693C250.057 79.1015 250.119 78.9406 250.23 78.822C250.34 78.7034 250.49 78.6367 250.647 78.6367Z" fill="white"/>
</mask>
<g mask="url(#mask2_375_20410)">
<path d="M252.51 86.2693C284.252 85.3062 280.612 83.6765 279.654 78.6353C278.696 73.5941 285.533 77.3358 285.533 77.3358L282.374 90.2377" fill="#367DFE"/>
</g>
<path d="M266.216 73.2227C265.303 73.2227 264.411 73.5129 263.652 74.0568C262.893 74.6006 262.301 75.3736 261.952 76.278C261.603 77.1824 261.511 78.1776 261.689 79.1376C261.867 80.0977 262.307 80.9796 262.952 81.6718C263.598 82.364 264.42 82.8354 265.315 83.0264C266.21 83.2173 267.138 83.1193 267.982 82.7447C268.825 82.3701 269.546 81.7357 270.053 80.9218C270.56 80.1079 270.831 79.151 270.831 78.1721C270.831 76.8594 270.344 75.6005 269.479 74.6723C268.613 73.7441 267.44 73.2227 266.216 73.2227ZM266.216 78.1721C265.956 78.1721 265.703 78.0897 265.488 77.9352C265.272 77.7808 265.104 77.5613 265.005 77.3045C264.906 77.0477 264.88 76.7652 264.93 76.4925C264.981 76.2199 265.106 75.9695 265.289 75.773C265.472 75.5764 265.706 75.4426 265.96 75.3883C266.214 75.3341 266.478 75.362 266.717 75.4683C266.956 75.5747 267.161 75.7548 267.305 75.9859C267.449 76.2171 267.526 76.4888 267.526 76.7667C267.526 77.1394 267.388 77.4969 267.142 77.7604C266.896 78.024 266.563 78.172 266.216 78.1721Z" fill="#1D5BF3"/>
<path d="M185.532 66.4467C176.755 80.7865 175.245 83.0646 186.243 85.4857C188.206 90.5151 178.433 93.8893 175.466 98.5834C173.718 97.3109 174.27 112.476 183.952 109.958C193.633 107.44 220.399 90.4326 187.083 67.454C186.576 67.104 185.641 66.2677 185.532 66.4467Z" fill="#183CB5"/>
<path d="M184.795 66.3257C176.54 80.732 175.119 83.0206 185.464 85.4528C187.311 90.5056 178.118 93.8954 175.328 98.6112C173.683 97.3328 174.202 112.568 183.309 110.038C192.416 107.509 217.592 90.4227 186.254 67.3377C185.777 66.986 184.898 66.1459 184.795 66.3257Z" fill="#1D5BF3"/>
<path d="M162.636 188.156C160.243 198.601 160.839 200.175 164.285 205.016C165.31 202.788 167.478 193.132 168.3 189.951C169.119 189.935 163.001 188.375 162.636 188.156Z" fill="#FEFFFF"/>
<mask id="mask3_375_20410" style="mask-type:luminance" maskUnits="userSpaceOnUse" x="161" y="188" width="8" height="18">
<path d="M162.636 188.156C160.243 198.601 160.839 200.175 164.285 205.016C165.31 202.788 167.478 193.132 168.3 189.951C169.119 189.935 163.001 188.375 162.636 188.156Z" fill="white"/>
</mask>
<g mask="url(#mask3_375_20410)">
<path d="M167.798 194.128C169.583 197.296 160.305 195.203 160.305 195.203C160.489 190.317 165.021 193.671 167.521 193.45" fill="#FEFFFF"/>
</g>
<path d="M162.636 188.156C160.243 198.601 160.839 200.175 164.285 205.016C165.31 202.788 167.478 193.132 168.3 189.951C169.119 189.935 163.001 188.375 162.636 188.156Z" stroke="#19191B" stroke-width="4" stroke-linecap="round" stroke-linejoin="round"/>
<path d="M165.76 200.841C165.76 200.841 161.65 201.893 161.262 196.164C156.532 201.311 160.748 204.091 164.53 212.564C165.33 214.143 165.78 215.031 165.847 215.163C170.739 212.447 163.766 205.645 165.76 200.841Z" fill="#367DFE"/>
<path d="M150.761 162.461C138.689 163.903 138.404 164.767 134.436 169.438C137.156 169.807 147.032 168.101 150.697 167.631C150.996 168.309 150.643 162.844 150.761 162.461Z" fill="#EEF6FF"/>
<mask id="mask4_375_20410" style="mask-type:luminance" maskUnits="userSpaceOnUse" x="134" y="162" width="17" height="8">
<path d="M150.761 162.461C138.689 163.903 138.404 164.767 134.436 169.438C137.156 169.807 147.032 168.101 150.697 167.631C150.996 168.309 150.643 162.844 150.761 162.461Z" fill="white"/>
</mask>
<g mask="url(#mask4_375_20410)">
<path d="M146.549 163.411C142.85 162.245 143.308 168.864 142.837 169.851C150.832 171.794 146.986 166.69 147.612 164.118" fill="#DAE9FF"/>
</g>
<path d="M139.102 169.39C139.102 169.39 137 165.888 142.604 163.671C135.7 161.655 136.176 163.92 129.221 170.014C126.661 173.107 123.623 173.676 125.489 174.723C130.045 176.635 133.648 169.287 139.102 169.39Z" fill="#367DFE"/>
<path d="M169.883 195.277C169.156 198.094 153.049 189.574 153.049 189.574C153.049 189.574 153.681 183.917 157.205 182.1C160.73 180.284 158.064 176.643 161.307 174.724C164.55 172.805 167.149 164.218 167.149 164.218L166.545 122.375C166.687 122.505 183.516 123.918 181.891 123.971C181.859 124.192 181.853 124.417 181.874 124.639C187.063 172.155 180.619 163.243 169.883 195.277Z" fill="#8DBEFF"/>
<mask id="mask5_375_20410" style="mask-type:luminance" maskUnits="userSpaceOnUse" x="153" y="122" width="31" height="74">
<path d="M169.883 195.277C169.156 198.094 153.049 189.574 153.049 189.574C153.049 189.574 153.681 183.917 157.205 182.1C160.73 180.284 158.064 176.643 161.307 174.724C164.55 172.805 167.149 164.218 167.149 164.218L166.545 122.375C166.687 122.505 183.516 123.918 181.891 123.971C181.859 124.192 181.853 124.417 181.874 124.639C187.063 172.155 180.619 163.243 169.883 195.277Z" fill="white"/>
</mask>
<g mask="url(#mask5_375_20410)">
<path d="M160.77 199.043L173.739 158.984" stroke="#DAE9FF" stroke-linecap="round" stroke-linejoin="round"/>
<path d="M158.522 199.043L171.491 158.984" stroke="#DAE9FF" stroke-linecap="round" stroke-linejoin="round"/>
<path d="M176 136.086C186.452 161.411 187.884 158.109 187.784 165.695C188.84 171.157 122.275 188.416 153.654 152.406" fill="#59A0FF"/>
</g>
<path d="M174.47 125.341C149.184 110.824 164.427 159.114 164.419 159.759C164.41 159.828 143.836 160.839 144.848 160.97C145.088 167.687 139.472 175.916 146.164 174.515C159.213 173.256 173.225 172.139 177.473 168.019C180.766 165.651 175.683 143.278 176.098 140.238" fill="#8DBEFF"/>
<mask id="mask6_375_20410" style="mask-type:luminance" maskUnits="userSpaceOnUse" x="142" y="122" width="37" height="53">
<path d="M174.47 125.341C149.184 110.824 164.427 159.114 164.419 159.759C164.41 159.828 143.836 160.839 144.848 160.97C145.088 167.687 139.472 175.916 146.164 174.515C159.213 173.256 173.225 172.139 177.473 168.019C180.766 165.651 175.683 143.278 176.098 140.238" fill="white"/>
</mask>
<g mask="url(#mask6_375_20410)">
<path d="M143.618 163.849C145.712 163.13 170.966 164.28 170.783 161.34C169.219 147.962 160.695 137.056 168.46 125.684" stroke="#DAE9FF" stroke-linecap="round" stroke-linejoin="round"/>
<path d="M141.268 162.447C142.664 161.929 168.365 162.325 168.605 160.643C167.069 147.394 158.286 135.583 166.109 124.281" stroke="#DAE9FF" stroke-linecap="round" stroke-linejoin="round"/>
<path d="M178.733 130.034C146.683 122.522 161.747 153.571 158.717 159.112C150.269 166.578 153.404 122.123 153.605 120.776C156.012 116.268 177.819 118.819 181.894 118.213" fill="#59A0FF"/>
</g>
<path d="M184.808 75.1877C184.533 74.7447 180.537 67.9332 179.867 68.1142C177.099 66.0789 171.584 62.1579 178.366 65.1265C178.402 65.1287 177.738 61.6239 176.462 59.6752C176.344 59.4959 176.075 58.9354 176.072 58.8268C175.95 53.1165 189.458 73.0675 189.314 71.8736L184.808 75.1877Z" fill="#FEFFFF"/>
<mask id="mask7_375_20410" style="mask-type:luminance" maskUnits="userSpaceOnUse" x="175" y="57" width="15" height="19">
<path d="M184.808 75.1877C184.533 74.7447 180.537 67.9332 179.867 68.1142C177.099 66.0789 171.584 62.1579 178.366 65.1265C178.402 65.1287 177.738 61.6239 176.462 59.6752C176.344 59.4959 176.075 58.9354 176.072 58.8268C175.95 53.1165 189.458 73.0675 189.314 71.8736L184.808 75.1877Z" fill="white"/>
</mask>
<g mask="url(#mask7_375_20410)">
<path d="M185.216 66.8203C182.494 66.5105 176.53 77.0581 184.055 72.0133L185.216 66.8203ZM182.399 63.2852C184.619 63.8547 178.58 68.2654 178.58 68.2654H174.895L178.366 65.1256" fill="#FEFFFF"/>
</g>
<path d="M184.808 75.1877C184.533 74.7447 180.537 67.9332 179.867 68.1142C177.099 66.0789 171.584 62.1579 178.366 65.1265C178.402 65.1287 177.738 61.6239 176.462 59.6752C176.344 59.4959 176.075 58.9354 176.072 58.8268C175.95 53.1165 189.458 73.0675 189.314 71.8736L184.808 75.1877Z" stroke="#19191B" stroke-width="4" stroke-linecap="round" stroke-linejoin="round"/>
<path d="M150.25 91.0224L147.533 89.3185L145.138 87.8166C144.865 87.6457 144.627 87.4188 144.436 87.149C144.245 86.8792 144.106 86.5718 144.026 86.2442C143.946 85.9166 143.926 85.5753 143.969 85.2398C144.012 84.9043 144.116 84.5811 144.276 84.2888C144.598 83.6984 145.125 83.2693 145.742 83.096C146.359 82.9226 147.015 83.0191 147.565 83.3644L152.677 86.5701C152.95 86.741 153.188 86.9679 153.379 87.2377C153.57 87.5075 153.709 87.815 153.79 88.1426C153.87 88.4701 153.889 88.8114 153.846 89.1469C153.803 89.4824 153.699 89.8056 153.539 90.0979C153.38 90.3903 153.168 90.6461 152.917 90.8507C152.665 91.0554 152.379 91.2049 152.073 91.2908C151.768 91.3766 151.449 91.3971 151.137 91.351C150.824 91.305 150.522 91.1933 150.25 91.0224Z" fill="white"/>
<path d="M156.642 113.882C154.022 115.817 150.684 115.493 149.186 113.16L136.057 92.7095C134.559 90.3762 135.468 86.9165 138.088 84.9821C140.708 83.0476 144.046 83.3708 145.544 85.7042L147.776 89.1808L158.673 106.155C160.171 108.488 159.262 111.948 156.642 113.882Z" fill="white"/>
<mask id="mask8_375_20410" style="mask-type:luminance" maskUnits="userSpaceOnUse" x="135" y="83" width="25" height="33">
<path d="M156.642 113.882C154.022 115.817 150.684 115.493 149.186 113.16L136.057 92.7095C134.559 90.3762 135.468 86.9165 138.088 84.9821C140.708 83.0476 144.046 83.3708 145.544 85.7042L147.776 89.1808L158.673 106.155C160.171 108.488 159.262 111.948 156.642 113.882Z" fill="white"/>
</mask>
<g mask="url(#mask8_375_20410)">
<path d="M155.155 91.3804C133.512 83.419 147.365 109.47 147.365 109.47L128.996 103.625L128.84 85.3366L149.726 81.582" fill="#EEF6FF"/>
</g>
<path d="M156.642 113.882C154.022 115.817 150.684 115.493 149.186 113.16L136.057 92.7095C134.559 90.3762 135.468 86.9165 138.088 84.9821C140.708 83.0476 144.046 83.3708 145.544 85.7042L147.776 89.1808L158.673 106.155C160.171 108.488 159.262 111.948 156.642 113.882Z" stroke="#E5E7EB" stroke-width="0.5" stroke-linecap="round" stroke-linejoin="round"/>
<path d="M130.826 72.993L128.052 75.4171C127.657 75.7624 127.15 75.9252 126.643 75.8696C126.136 75.8141 125.67 75.5448 125.348 75.1209L124.738 74.3186C124.579 74.1088 124.46 73.8673 124.387 73.6079C124.315 73.3486 124.291 73.0765 124.316 72.8072C124.342 72.5379 124.417 72.2767 124.537 72.0384C124.656 71.8001 124.819 71.5895 125.014 71.4185L125.527 70.971L127.789 68.9945C128.184 68.6492 128.691 68.4864 129.198 68.5419C129.705 68.5975 130.171 68.8668 130.493 69.2906L131.102 70.0929C131.424 70.5168 131.576 71.0604 131.524 71.6043C131.473 72.1482 131.222 72.6477 130.826 72.993Z" fill="#DAE9FF"/>
<path d="M193.331 74.4049C197.388 71.4093 192.944 56.936 183.405 42.078C173.866 27.2201 162.845 17.6037 158.788 20.5994C154.731 23.595 159.175 38.0682 168.714 52.9262C178.253 67.7842 189.274 77.4005 193.331 74.4049Z" fill="url(#paint0_linear_375_20410)"/>
<path d="M135.862 64.1641C132.043 68.5953 127.684 72.4535 122.902 75.6339C124.138 77.9099 125.512 80.2384 127.013 82.5766C129.797 86.9118 132.706 90.7995 135.532 94.0591C140.127 90.9683 144.864 88.1275 149.726 85.5474C146.916 82.1904 144.314 78.6395 141.937 74.9176C139.712 71.4672 137.684 67.8762 135.862 64.1641Z" fill="#EEF6FF"/>
<path d="M135.862 64.1641C132.043 68.5953 127.684 72.4535 122.902 75.6339C124.138 77.9099 125.512 80.2384 127.013 82.5766C129.797 86.9118 132.706 90.7995 135.532 94.0591C140.127 90.9683 144.864 88.1275 149.726 85.5474C146.916 82.1904 144.314 78.6395 141.937 74.9176C139.712 71.4672 137.684 67.8762 135.862 64.1641Z" stroke="#DAE9FF" stroke-width="0.5" stroke-linecap="round" stroke-linejoin="round"/>
<path d="M122.902 75.6328C120.762 77.0594 118.555 78.3677 116.289 79.5527C111.016 82.3225 108.676 89.0223 110.992 94.8088C113.742 101.68 121.679 104.1 127.397 99.8216C129.805 98.0202 132.542 96.0597 135.532 94.0579C132.706 90.7983 129.797 86.9106 127.013 82.5755C125.512 80.2373 124.138 77.9087 122.902 75.6328Z" fill="white" stroke="#E5E7EB" stroke-width="0.5" stroke-linecap="round" stroke-linejoin="round"/>
<path d="M158.088 21.6133C153.99 32.9297 149.982 42.2006 145.672 49.9073C142.603 55.3966 139.38 60.0917 135.862 64.1636C137.684 67.8757 139.713 71.4667 141.937 74.9171C144.314 78.639 146.916 82.1899 149.726 85.5469C154.481 83.0405 159.497 80.7623 164.598 78.9886C174.817 75.4358 185.375 73.9116 194.854 76.6669L158.088 21.6133Z" fill="white"/>
<mask id="mask9_375_20410" style="mask-type:luminance" maskUnits="userSpaceOnUse" x="135" y="21" width="60" height="65">
<path d="M158.088 21.6133C153.99 32.9297 149.982 42.2006 145.672 49.9073C142.603 55.3966 139.38 60.0917 135.862 64.1636C137.684 67.8757 139.713 71.4667 141.937 74.9171C144.314 78.639 146.916 82.1899 149.726 85.5469C154.481 83.0405 159.497 80.7623 164.598 78.9886C174.817 75.4358 185.375 73.9116 194.854 76.6669L158.088 21.6133Z" fill="white"/>
</mask>
<g mask="url(#mask9_375_20410)">
<path d="M151.418 25.3008C150.328 67.5498 188.165 65.7425 150.328 83.0113C112.491 100.28 183.494 104.956 183.494 104.956L201.245 79.1106L202.023 49.8487L161.383 22.6289" fill="#EEF6FF"/>
</g>
<path d="M158.088 21.6133C153.99 32.9297 149.982 42.2006 145.672 49.9073C142.603 55.3966 139.38 60.0917 135.862 64.1636C137.684 67.8757 139.713 71.4667 141.937 74.9171C144.314 78.639 146.916 82.1899 149.726 85.5469C154.481 83.0405 159.497 80.7623 164.598 78.9886C174.817 75.4358 185.375 73.9116 194.854 76.6669L158.088 21.6133Z" stroke="#E5E7EB" stroke-width="0.5" stroke-linecap="round" stroke-linejoin="round"/>
<path d="M195.436 77.685C200.91 73.6429 196.673 56.8534 185.971 40.1845C175.27 23.5156 162.157 13.2796 156.683 17.3217C151.209 21.3638 155.447 38.1534 166.148 54.8223C176.849 71.4911 189.962 81.7271 195.436 77.685Z" fill="#FEFFFF" stroke="#E5E7EB" stroke-width="0.5" stroke-linecap="round" stroke-linejoin="round"/>
<path d="M193.331 74.4049C197.388 71.4093 192.944 56.936 183.405 42.078C173.866 27.2201 162.845 17.6037 158.788 20.5994C154.731 23.595 159.175 38.0682 168.714 52.9262C178.253 67.7842 189.274 77.4005 193.331 74.4049Z" fill="#EEF6FF"/>
<mask id="mask10_375_20410" style="mask-type:luminance" maskUnits="userSpaceOnUse" x="157" y="20" width="38" height="55">
<path d="M193.331 74.4049C197.388 71.4093 192.944 56.936 183.405 42.078C173.866 27.2201 162.845 17.6037 158.788 20.5994C154.731 23.595 159.175 38.0682 168.714 52.9262C178.253 67.7842 189.274 77.4005 193.331 74.4049Z" fill="white"/>
</mask>
<g mask="url(#mask10_375_20410)">
<path d="M176.05 67.9113L169.421 72.8064C166.285 75.1216 162.421 76.0061 158.677 75.2656C154.934 74.525 151.618 72.2199 149.459 68.8574C147.301 65.4948 146.476 61.3503 147.166 57.3356C147.857 53.3209 150.006 49.7648 153.142 47.4496L156.358 45.0746L159.771 42.5544C162.906 40.2393 166.771 39.3547 170.514 40.0953C174.258 40.8359 177.573 43.141 179.732 46.5035C181.891 49.866 182.716 54.0105 182.025 58.0252C181.335 62.04 179.185 65.5961 176.05 67.9113Z" fill="#DAE9FF"/>
<mask id="mask11_375_20410" style="mask-type:luminance" maskUnits="userSpaceOnUse" x="146" y="39" width="37" height="37">
<path d="M176.05 67.9113L169.421 72.8064C166.285 75.1216 162.421 76.0061 158.677 75.2656C154.934 74.525 151.618 72.2199 149.459 68.8574C147.301 65.4948 146.476 61.3503 147.166 57.3356C147.857 53.3209 150.006 49.7648 153.142 47.4496L156.358 45.0746L159.771 42.5544C162.906 40.2393 166.771 39.3547 170.514 40.0953C174.258 40.8359 177.573 43.141 179.732 46.5035C181.891 49.866 182.716 54.0105 182.025 58.0252C181.335 62.04 179.185 65.5961 176.05 67.9113Z" fill="white"/>
</mask>
<g mask="url(#mask11_375_20410)">
<path d="M167.962 36.6152C161.539 51.895 182.179 73.5622 182.179 73.5622L156.358 45.0741L160.488 33.6094H167.962" fill="#59A0FF"/>
</g>
</g>
<path d="M193.331 74.4049C197.388 71.4093 192.944 56.936 183.405 42.078C173.866 27.2201 162.845 17.6037 158.788 20.5994C154.731 23.595 159.175 38.0682 168.714 52.9262C178.253 67.7842 189.274 77.4005 193.331 74.4049Z" stroke="#E5E7EB" stroke-width="0.5" stroke-linecap="round" stroke-linejoin="round"/>
<path d="M132.587 97.6912C131.045 97.1136 124.203 84.7339 127.027 92.6275C110.181 83.1935 133.17 103.875 133.612 104.547L132.587 97.6912Z" fill="#FEFFFF"/>
<mask id="mask12_375_20410" style="mask-type:luminance" maskUnits="userSpaceOnUse" x="120" y="90" width="14" height="15">
<path d="M132.587 97.6912C131.045 97.1136 124.203 84.7339 127.027 92.6275C110.181 83.1935 133.17 103.875 133.612 104.547L132.587 97.6912Z" fill="white"/>
</mask>
<g mask="url(#mask12_375_20410)">
<path d="M132.586 95.3789C129.36 99.2859 127.651 99.1778 127.651 99.1778C134.63 106.012 134.07 99.0994 135.089 96.663" fill="#FEFFFF"/>
</g>
<path d="M132.587 97.6912C131.045 97.1136 124.203 84.7339 127.027 92.6275C110.181 83.1935 133.17 103.875 133.612 104.547L132.587 97.6912Z" fill="#DAE9FF"/>
<path d="M182.909 104.041C188.794 128.346 193.37 137.268 160.297 124.978C166.531 102.403 142.361 103.12 176.752 98.0469" fill="#A4C6ED"/>
<path d="M182.909 104.041C188.794 128.346 193.37 137.268 160.297 124.978C166.531 102.403 142.361 103.12 176.752 98.0469" fill="#367DFE"/>
<path d="M160.607 101.04C142.165 103.952 146.166 102.375 132.808 96.9054C132.412 96.1102 126.011 113.488 128.359 115.052C142.87 124.716 168.045 112.022 169.973 112.127" fill="#367DFE"/>
<path d="M168.88 100.692C168.268 93.3024 167.61 95.3795 173.333 94.5334C173.543 93.8904 174.71 100.326 174.863 100.458" fill="#EEF6FF"/>
<mask id="mask13_375_20410" style="mask-type:luminance" maskUnits="userSpaceOnUse" x="168" y="94" width="7" height="7">
<path d="M168.88 100.692C168.268 93.3024 167.61 95.3795 173.333 94.5334C173.543 93.8904 174.71 100.326 174.863 100.458" fill="white"/>
</mask>
<g mask="url(#mask13_375_20410)">
<path d="M172.412 96.9684C170.449 98.3357 172.843 98.9038 174.729 99.5876C176.614 100.271 173.714 94.3984 173.714 94.3984L170.785 95.061" fill="#DAE9FF"/>
</g>
<path d="M170.637 85.6466C169.66 85.9352 168.411 84.1428 166.892 85.0457C165.374 85.9486 165.442 84.0982 163.944 86.1705C162.445 88.2428 164.218 90.7415 164.218 90.7415L170.637 85.6466Z" fill="#367DFE"/>
<mask id="mask14_375_20410" style="mask-type:luminance" maskUnits="userSpaceOnUse" x="163" y="84" width="8" height="7">
<path d="M170.637 85.6466C169.66 85.9352 168.411 84.1428 166.892 85.0457C165.374 85.9486 165.442 84.0982 163.944 86.1705C162.445 88.2428 164.218 90.7415 164.218 90.7415L170.637 85.6466Z" fill="white"/>
</mask>
<g mask="url(#mask14_375_20410)">
<path d="M162.337 88.7097C165.754 88.1655 168.531 85.384 168.107 86.7919C167.683 88.1998 163.701 90.913 163.701 90.913L162.749 90.1922" fill="#1D5BF3"/>
</g>
<path d="M173.236 88.0234C173.552 89.1993 178.889 92.7438 176.368 94.8845C173.847 97.0252 171.691 94.762 171.691 94.762L170.873 88.5452L173.236 88.0234Z" fill="#1D5BF3"/>
<path d="M173.236 88.0234C173.066 90.2155 177.375 91.3784 175.122 96.1352C173.146 100.308 164.501 92.1935 165.427 90.1485C166.353 88.1035 173.236 88.0234 173.236 88.0234Z" fill="#EEF6FF"/>
<path d="M169.741 89.0382C170.624 90.7353 167.863 90.9292 167.863 90.9292C167.551 94.5795 171.178 95.393 171.284 96.4476C171.389 97.5021 168.503 99.296 166.874 99.2028C164.363 91.2238 163.363 88.9144 166.257 87.9524C169.152 86.9904 169.741 89.0382 169.741 89.0382Z" fill="#183CB5"/>
<mask id="mask15_375_20410" style="mask-type:luminance" maskUnits="userSpaceOnUse" x="164" y="87" width="8" height="13">
<path d="M169.741 89.0382C170.624 90.7353 167.863 90.9292 167.863 90.9292C167.551 94.5795 171.178 95.393 171.284 96.4476C171.389 97.5021 168.503 99.296 166.874 99.2028C164.363 91.2238 163.363 88.9144 166.257 87.9524C169.152 86.9904 169.741 89.0382 169.741 89.0382Z" fill="white"/>
</mask>
<g mask="url(#mask15_375_20410)">
<path d="M167.662 89.7159C169.042 89.2154 165.199 92.2009 165.266 94.0599C165.333 95.9189 163.852 94.5781 163.852 94.5781L164.575 91.2096M167.34 94.8567C167.507 96.0763 170.652 96.8326 171.116 98.0133C171.58 99.194 169.893 99.6432 169.893 99.6432C169.893 99.6432 170.686 97.9543 168.856 96.8577C167.027 95.761 167.34 94.8567 167.34 94.8567Z" fill="#152E7C"/>
</g>
<path d="M168.767 88.4765C169.17 90.3868 173.57 88.6901 173.57 88.6901C173.57 88.6901 174.797 86.8217 172.609 87.0934C171.255 87.2746 169.949 87.7449 168.767 88.4765Z" fill="#183CB5"/>
<path d="M173.839 87.3852C173.839 87.3852 171.679 84.8821 170.353 85.4677C169.027 86.0533 164.221 87.8288 163.614 90.0812C163.266 91.3706 164.613 93.6559 165.152 93.6661C166.049 88.2011 173.839 87.3852 173.839 87.3852Z" fill="#367DFE"/>
<path d="M171.83 91.9322C172.077 92.5519 171.473 92.8739 171.143 92.1995C170.89 91.5655 171.508 91.2723 171.83 91.9322Z" fill="#59A0FF"/>
<path d="M174.456 90.8744C174.682 91.4355 174.188 91.704 173.892 91.0929C173.662 90.52 174.166 90.2751 174.456 90.8744Z" fill="#59A0FF"/>
<path d="M173.502 88.883C172.181 89.2558 172.157 89.969 173.032 89.7666C173.857 89.576 174.3 88.6578 173.502 88.883ZM170.748 90.3834C169.039 90.6496 168.848 91.4455 169.978 91.3157C171.037 91.1941 171.773 90.2237 170.748 90.3834Z" fill="#59A0FF"/>
<path d="M173.812 92.7363C173.452 92.4919 173.184 91.6968 172.963 91.8946C172.665 91.9509 173.216 92.6163 173.197 93.0702C173.178 93.531 173.561 93.5794 173.782 93.4532C173.782 93.4529 173.782 93.4521 173.783 93.4518C173.783 93.4515 173.784 93.452 173.785 93.4517C174.002 93.3277 174.166 92.9772 173.812 92.7363Z" fill="#DAE9FF"/>
<path opacity="0.3" d="M172.839 93.8225C172.901 94.2039 172.451 94.6343 171.816 94.791C171.16 94.9532 170.55 94.7637 170.476 94.3599C170.401 93.953 170.901 93.5044 171.571 93.3652C172.218 93.2307 172.777 93.4384 172.839 93.8225Z" fill="white"/>
<path d="M173.305 94.0765C173.763 94.4903 174.201 94 174.201 94" stroke="#DAE9FF" stroke-width="0.5" stroke-linecap="round" stroke-linejoin="round"/>
<path d="M177.986 186.273H109.907C107.714 186.273 105.936 188.18 105.936 190.532V202.642C105.936 204.994 107.714 206.901 109.907 206.901H177.986C180.179 206.901 181.957 204.994 181.957 202.642V190.532C181.957 188.18 180.179 186.273 177.986 186.273Z" fill="#FEFFFF"/>
<mask id="mask16_375_20410" style="mask-type:luminance" maskUnits="userSpaceOnUse" x="105" y="186" width="77" height="21">
<path d="M177.986 186.273H109.907C107.714 186.273 105.936 188.18 105.936 190.532V202.642C105.936 204.994 107.714 206.901 109.907 206.901H177.986C180.179 206.901 181.957 204.994 181.957 202.642V190.532C181.957 188.18 180.179 186.273 177.986 186.273Z" fill="white"/>
</mask>
<g mask="url(#mask16_375_20410)">
<path d="M180.33 184.723C181.432 213.159 122.429 202.629 127.099 206.902C131.769 211.176 136.181 221.111 136.841 222.261C137.501 223.41 185.476 226.959 185.476 226.959L192.093 204.536L187.682 188.321" fill="#EEF6FF"/>
</g>
<path d="M177.986 186.273H109.907C107.714 186.273 105.936 188.18 105.936 190.532V202.642C105.936 204.994 107.714 206.901 109.907 206.901H177.986C180.179 206.901 181.957 204.994 181.957 202.642V190.532C181.957 188.18 180.179 186.273 177.986 186.273Z" stroke="#E5E7EB" stroke-width="0.5" stroke-linecap="round" stroke-linejoin="round"/>
<path d="M171.526 191.664H129.924C129.326 191.664 128.842 192.184 128.842 192.825V193.758C128.842 194.399 129.326 194.919 129.924 194.919H171.526C172.124 194.919 172.608 194.399 172.608 193.758V192.825C172.608 192.184 172.124 191.664 171.526 191.664Z" fill="#DAE9FF"/>
<path d="M143.759 196.586H129.924C129.326 196.586 128.842 197.106 128.842 197.747V198.631C128.842 199.272 129.326 199.791 129.924 199.791H143.759C144.357 199.791 144.841 199.272 144.841 198.631V197.747C144.841 197.106 144.357 196.586 143.759 196.586Z" fill="#DAE9FF"/>
<path d="M161.519 196.586H147.684C147.087 196.586 146.602 197.106 146.602 197.747V198.631C146.602 199.272 147.087 199.791 147.684 199.791H161.519C162.117 199.791 162.602 199.272 162.602 198.631V197.747C162.602 197.106 162.117 196.586 161.519 196.586Z" fill="#DAE9FF"/>
<path d="M117.571 200.719C117.276 200.719 116.991 200.6 116.774 200.386L112.791 196.471C112.56 196.244 112.423 195.929 112.41 195.594C112.396 195.259 112.507 194.932 112.719 194.684C112.93 194.437 113.224 194.29 113.536 194.276C113.849 194.261 114.154 194.38 114.384 194.607L117.557 197.726L123.176 192.011C123.289 191.897 123.421 191.807 123.565 191.748C123.71 191.688 123.864 191.66 124.019 191.665C124.174 191.669 124.326 191.706 124.467 191.774C124.609 191.841 124.736 191.938 124.843 192.058C124.949 192.179 125.033 192.321 125.088 192.476C125.144 192.631 125.17 192.796 125.166 192.962C125.162 193.128 125.127 193.291 125.064 193.443C125.001 193.595 124.911 193.731 124.799 193.846L118.382 200.372C118.163 200.595 117.872 200.719 117.571 200.719Z" fill="#367DFE"/>
<path d="M195.155 123.737C192.792 122.962 188.064 121.096 184.105 119.573C177.896 117.185 173.179 116.251 182.857 121.093C176.509 126.717 188.861 126.622 190.977 127.871C190.702 128.539 194.796 123.945 195.155 123.737Z" fill="#DAE9FF"/>
<mask id="mask17_375_20410" style="mask-type:luminance" maskUnits="userSpaceOnUse" x="177" y="117" width="19" height="11">
<path d="M195.155 123.737C192.792 122.962 188.064 121.096 184.105 119.573C177.896 117.185 173.179 116.251 182.857 121.093C176.509 126.717 188.861 126.622 190.977 127.871C190.702 128.539 194.796 123.945 195.155 123.737Z" fill="white"/>
</mask>
<g mask="url(#mask17_375_20410)">
<path d="M184.891 132.034C190.727 110.649 199.055 130.587 185.76 132.209L184.891 132.034Z" fill="#59A0FF"/>
</g>
<path d="M191.192 122.336C186.212 123.38 186.745 142.841 190.943 145.565C195.141 148.289 229.752 144.166 229.752 144.166L236.128 132.908C224.841 130.869 202.024 125.723 191.192 122.336Z" fill="#367DFE"/>
<mask id="mask18_375_20410" style="mask-type:luminance" maskUnits="userSpaceOnUse" x="187" y="122" width="50" height="25">
<path d="M191.192 122.336C186.212 123.38 186.745 142.841 190.943 145.565C195.141 148.289 229.752 144.166 229.752 144.166L236.128 132.908C224.841 130.869 202.024 125.723 191.192 122.336Z" fill="white"/>
</mask>
<g mask="url(#mask18_375_20410)">
<path d="M228.831 138.125C232.127 133.05 206.506 147.016 203.714 147.23C200.922 147.444 204.618 148.467 204.618 148.467L224.168 151.881L230.762 138.125L232.821 138.469" fill="#1D5BF3"/>
<path d="M197.066 121.727C190.52 122.531 191.912 133.25 191.912 133.25" stroke="#1D5BF3" stroke-width="4" stroke-linecap="round" stroke-linejoin="round"/>
</g>
<path d="M254.209 218.549C254.278 230.917 252.7 227.945 260.5 229.065L261.54 215.223" fill="#FEFFFF"/>
<path d="M254.209 218.549C254.278 230.917 252.7 227.945 260.5 229.065L261.54 215.223" stroke="#19191B" stroke-width="4" stroke-linecap="round" stroke-linejoin="round"/>
<path d="M248.169 221.178C252.212 222.983 263.25 219.829 263.25 219.829L266.195 185.003C266.393 182.66 265.135 180.425 262.988 179.305L234.022 164.195L227.664 181.804L252.62 189.809C252.62 189.809 244.125 219.372 248.169 221.178Z" fill="#8DBEFF"/>
<mask id="mask19_375_20410" style="mask-type:luminance" maskUnits="userSpaceOnUse" x="227" y="164" width="40" height="58">
<path d="M248.169 221.178C252.212 222.983 263.25 219.829 263.25 219.829L266.195 185.003C266.393 182.66 265.135 180.425 262.988 179.305L234.022 164.195L227.664 181.804L252.62 189.809C252.62 189.809 244.125 219.372 248.169 221.178Z" fill="white"/>
</mask>
<g mask="url(#mask19_375_20410)">
<path d="M245.222 187.437C232.803 184.576 242.356 168.606 239.616 166.792C236.877 164.977 216.394 156.003 215.428 171.346L214.462 186.69" fill="#59A0FF"/>
</g>
<path d="M229.712 136.62C220.97 143.899 206.522 154.075 208.117 159.343C209.712 164.612 236.597 167.034 236.597 167.034C236.597 167.034 246.91 153.228 247.325 138.83C247.325 138.83 243.254 134.366 235.504 132.781" fill="#367DFE"/>
<mask id="mask20_375_20410" style="mask-type:luminance" maskUnits="userSpaceOnUse" x="207" y="132" width="41" height="36">
<path d="M229.712 136.62C220.97 143.899 206.522 154.075 208.117 159.343C209.712 164.612 236.597 167.034 236.597 167.034C236.597 167.034 246.91 153.228 247.325 138.83C247.325 138.83 243.254 134.366 235.504 132.781" fill="white"/>
</mask>
<g mask="url(#mask20_375_20410)">
<path d="M242.628 147.25L239.617 150.118C238.332 150.585 242.375 154.71 241.071 156.325C238.068 160.045 226.812 161.381 215.813 160.467C210.467 161.844 223.059 170.682 224.089 171.458C223.063 171.706 241.847 170.151 241.357 170.119C244.033 164.659 246.387 156.394 247.325 151.273C247.358 151.284 242.813 149.052 242.628 148.957" fill="#1D5BF3"/>
</g>
<path d="M223.501 201.374L220.164 212.933L226.424 214.812L231.229 200.781" fill="#EEF6FF"/>
<mask id="mask21_375_20410" style="mask-type:luminance" maskUnits="userSpaceOnUse" x="220" y="200" width="12" height="15">
<path d="M223.501 201.374L220.164 212.933L226.424 214.812L231.229 200.781" fill="white"/>
</mask>
<g mask="url(#mask21_375_20410)">
<path d="M229.227 205.031C233.483 206.618 219.11 207.947 220.164 210.163C220.928 205.024 222.538 206.186 225.002 205.448" fill="#DAE9FF"/>
</g>
<path d="M253.787 223.7C256.213 223.783 261.54 222.884 261.54 222.884L261.986 234.824L251.281 232.154L253.787 223.7ZM220.156 211.731C222.582 211.814 228.141 210.449 228.141 210.449L227.175 219.994L217.745 219.57L220.156 211.731Z" fill="#367DFE"/>
<path d="M238.942 131.965C232.655 140.671 235.899 139.978 243.102 137.045C243.244 136.434 245.038 128.741 245.058 128.652L238.942 131.965Z" fill="#EEF6FF"/>
<mask id="mask22_375_20410" style="mask-type:luminance" maskUnits="userSpaceOnUse" x="235" y="128" width="11" height="12">
<path d="M238.942 131.965C232.655 140.671 235.899 139.978 243.102 137.045C243.244 136.434 245.038 128.741 245.058 128.652L238.942 131.965Z" fill="white"/>
</mask>
<g mask="url(#mask22_375_20410)">
<path d="M235.937 135.465C239.386 135.079 242.111 131.494 242.111 131.494C237.174 130.046 238.013 132.453 236.249 134.693" fill="#DAE9FF"/>
</g>
<path d="M234.022 173.574C231.118 174.244 219.005 185.017 207.995 184.019C195.769 182.912 204.374 167.752 210.207 159.556C210.421 158.97 210.633 159.54 212.379 159.578C217.003 160.112 227.564 161.332 227.664 161.343C227.652 161.306 233.973 173.49 234.022 173.574Z" fill="#8DBEFF"/>
<mask id="mask23_375_20410" style="mask-type:luminance" maskUnits="userSpaceOnUse" x="201" y="159" width="34" height="26">
<path d="M234.022 173.574C231.118 174.244 219.005 185.017 207.995 184.019C195.769 182.912 204.374 167.752 210.207 159.556C210.421 158.97 210.633 159.54 212.379 159.578C217.003 160.112 227.564 161.332 227.664 161.343C227.652 161.306 233.973 173.49 234.022 173.574Z" fill="white"/>
</mask>
<g mask="url(#mask23_375_20410)">
<path d="M221.362 159.344C193.34 164.586 212.291 192.565 219.271 187.996C215.481 188.801 198.206 185.773 200.188 183.823C193.935 161.627 192.756 169.982 204.618 159.344" fill="#59A0FF"/>
</g>
<path d="M280.706 167.543C285.471 174.843 293.953 171.589 294.983 175.794C294.005 176.191 291.372 174.5 289.104 175.308C283.366 176.171 294.742 177.342 287.369 177.854C284.179 178.585 279.421 172.635 277.855 172.104C277.82 172.127 280.608 167.722 280.706 167.543Z" fill="#DAE9FF"/>
<mask id="mask24_375_20410" style="mask-type:luminance" maskUnits="userSpaceOnUse" x="277" y="167" width="18" height="11">
<path d="M280.706 167.543C285.471 174.843 293.953 171.589 294.983 175.794C294.005 176.191 291.372 174.5 289.104 175.308C283.366 176.171 294.742 177.342 287.369 177.854C284.179 178.585 279.421 172.635 277.855 172.104C277.82 172.127 280.608 167.722 280.706 167.543Z" fill="white"/>
</mask>
<g mask="url(#mask24_375_20410)">
<path d="M281.296 170.051C285.559 168.162 280.415 172.691 281.708 175.029C283.001 177.367 276.919 175.477 276.919 175.477L280.386 170.966" fill="#DAE9FF"/>
</g>
<path d="M246.674 138.125L268.977 153.671L283.613 168.681C281.274 174.5 271.783 182.128 268.553 183.117C265.324 184.105 239.616 150.115 239.616 150.115" fill="#367DFE"/>
<mask id="mask25_375_20410" style="mask-type:luminance" maskUnits="userSpaceOnUse" x="239" y="138" width="45" height="46">
<path d="M246.674 138.125L268.977 153.671L283.613 168.681C281.274 174.5 271.783 182.128 268.553 183.117C265.324 184.105 239.616 150.115 239.616 150.115" fill="white"/>
</mask>
<g mask="url(#mask25_375_20410)">
<path d="M271.493 172.709C278.845 172.772 281.27 164.191 281.27 164.191" stroke="#1D5BF3" stroke-width="4" stroke-linecap="round" stroke-linejoin="round"/>
</g>
<path d="M225.239 173.932C225.265 173.957 210.403 198.614 211.877 203.608C213.35 208.601 231.261 206.044 229.978 206.025C229.994 205.943 230.034 205.831 230.114 205.506C238.403 169.713 247.023 161.65 227.664 161.344" fill="#8DBEFF"/>
<path d="M303.835 248.553L306.854 254.175C309.015 251.714 306.499 246.177 304.977 235.983C302.734 225.257 301.246 216.022 293.435 224.471C292.618 225.237 293.244 224.875 293.748 227.603C295.647 238.715 299.522 242.491 303.835 248.553Z" fill="#FEFFFF" stroke="#E5E7EB" stroke-width="0.5" stroke-linecap="round" stroke-linejoin="round"/>
<path d="M187.13 206.373C198.683 203.983 214.669 204.683 232.384 217.087L232.549 217.203L232.698 217.065H232.699C232.699 217.065 232.7 217.063 232.702 217.062C232.705 217.059 232.711 217.054 232.717 217.048C232.731 217.036 232.751 217.017 232.778 216.993C232.832 216.945 232.915 216.872 233.024 216.779C233.243 216.593 233.57 216.324 234 215.991C234.862 215.326 236.137 214.408 237.791 213.405C241.097 211.4 245.912 209.053 251.94 207.691C263.969 204.975 280.868 206.171 300.317 221.899L302.117 235.277L182.9 220.051L182.823 220.041L182.753 220.077L171.246 226.036L165.684 221.26L168.504 214.202C168.512 214.197 168.521 214.191 168.53 214.185C168.584 214.145 168.666 214.085 168.774 214.008C168.99 213.854 169.312 213.632 169.736 213.356C170.583 212.806 171.835 212.045 173.449 211.21C176.677 209.539 181.351 207.569 187.13 206.373Z" fill="#FEFFFF" stroke="#E5E7EB" stroke-width="0.5"/>
<mask id="mask26_375_20410" style="mask-type:luminance" maskUnits="userSpaceOnUse" x="165" y="205" width="138" height="31">
<path d="M171.211 226.336L165.385 221.334L168.298 214.046C168.298 214.046 196.973 191.987 232.528 216.882C232.528 216.882 261.471 190.096 300.552 221.767L302.408 235.567L182.869 220.299L171.211 226.336Z" fill="white"/>
</mask>
<g mask="url(#mask26_375_20410)">
<path d="M163.955 216.174C163.955 216.174 197.342 200.574 220.813 214.283C220.813 214.283 200.391 201.835 163.955 216.174Z" fill="#DAE9FF"/>
<path d="M165.385 218.426C191.647 208.578 207.149 210.974 225.221 219.719C225.221 219.719 200.832 205.032 165.385 218.426ZM241.749 215.645C241.749 215.645 268.929 200.229 303.052 227.346H301.839C301.839 227.346 272.529 203.3 241.749 215.645Z" fill="#DAE9FF"/>
</g>
<path d="M221.362 226.334C223.948 223.987 230.44 218.273 232.582 216.926C239.985 221.746 238.423 225.437 239.766 230.274L221.362 226.334Z" fill="#0A0A0A"/>
<path d="M171.211 226.337C161.798 221.522 165.355 221.601 167.453 220.325C171.119 218.696 179.429 215.667 191.381 215.18C204.269 213.185 226.297 221.572 233.21 223.178C239.355 221.095 271.157 210.523 303.624 233.869C305.589 238.131 298.485 237.223 294.902 239.346C280.25 238.665 185.175 229.079 171.211 226.337Z" fill="#0A0A0A"/>
<path d="M164.904 222.694C164.904 222.694 187.128 237.202 202.474 251.786C202.474 251.786 225.058 241.783 246.684 253.028C246.684 253.028 274.483 238.224 307.357 255.012L303.836 235.418C303.836 235.418 271.765 216.784 239.831 224.916C232.327 235.744 231.942 228.7 226.095 224.718C216.284 220.404 195.765 214.121 164.904 222.694Z" fill="#212223"/>
<mask id="mask27_375_20410" style="mask-type:luminance" maskUnits="userSpaceOnUse" x="164" y="218" width="144" height="38">
<path d="M164.904 222.694C164.904 222.694 187.128 237.202 202.474 251.786C202.474 251.786 225.058 241.783 246.684 253.028C246.684 253.028 274.483 238.224 307.357 255.012L303.836 235.418C303.836 235.418 271.765 216.784 239.831 224.916C232.327 235.744 231.942 228.7 226.095 224.718C216.284 220.404 195.765 214.121 164.904 222.694Z" fill="white"/>
</mask>
<g mask="url(#mask27_375_20410)">
<path d="M161.972 221.152C182.467 245.716 218.085 238.821 234.435 247.469C250.785 256.116 212.659 265.554 211.998 265.798C211.337 266.043 177.178 256.35 176.296 253.633C175.415 250.916 167.261 232.954 167.261 232.954L161.972 221.152Z" fill="#0A0A0A"/>
</g>
<path d="M226.831 225.05C233.171 233.438 242.009 263.52 252.145 250.265C251.778 249.508 239.851 224.96 239.831 224.918C239.831 224.918 232.129 231.334 226.831 225.05Z" fill="#0A0A0A"/>
<path d="M244.578 129.65C245.569 130.187 246.322 129.614 246.748 129.109C246.898 128.931 247.03 128.736 247.14 128.527C247.14 128.527 248.329 126.071 248.694 125.363C249.059 124.655 247.507 120.125 244.501 120.485C243.143 117.842 237.966 118.961 239.105 123.782C240.245 128.603 244.291 128.98 244.291 128.98" fill="#183CB5"/>
<mask id="mask28_375_20410" style="mask-type:luminance" maskUnits="userSpaceOnUse" x="238" y="119" width="11" height="11">
<path d="M244.578 129.65C245.569 130.187 246.322 129.614 246.748 129.109C246.898 128.931 247.03 128.736 247.14 128.527C247.14 128.527 248.329 126.071 248.694 125.363C249.059 124.655 247.507 120.125 244.501 120.485C243.143 117.842 237.966 118.961 239.105 123.782C240.245 128.603 244.291 128.98 244.291 128.98" fill="white"/>
</mask>
<g mask="url(#mask28_375_20410)">
<path d="M246.352 120.363C246.75 121.011 247.373 122.594 244.936 121.945C244.925 121.942 244.913 121.943 244.902 121.949C244.892 121.954 244.883 121.964 244.879 121.976C244.874 121.988 244.874 122.001 244.878 122.013C244.882 122.025 244.89 122.035 244.9 122.041C245.655 122.482 247.232 123.509 247.753 124.665C248.666 126.692 246.601 128.157 244.904 128.905C243.207 129.652 249.884 130.779 249.884 130.779L251.981 121.78M238.349 120.381C238.449 122.669 240.33 122.362 240.103 124.672C239.876 126.983 238.973 126.189 238.973 126.189L238.417 124.555L237.515 123.016" fill="#152E7C"/>
</g>
<path d="M239.756 122.4C239.473 126.209 236.783 125.83 236.978 128.918C237.165 131.855 237.753 133.116 241.752 132.175C245.752 131.235 246.362 126.914 246.362 126.914L246.525 123.413L241.164 121.602L239.756 122.4Z" fill="#EEF6FF"/>
<mask id="mask29_375_20410" style="mask-type:luminance" maskUnits="userSpaceOnUse" x="236" y="121" width="11" height="12">
<path d="M239.756 122.4C239.473 126.209 236.783 125.83 236.978 128.918C237.165 131.855 237.753 133.116 241.752 132.175C245.752 131.235 246.362 126.914 246.362 126.914L246.525 123.413L241.164 121.602L239.756 122.4Z" fill="white"/>
</mask>
<g mask="url(#mask29_375_20410)">
<path opacity="0.3" d="M239.196 126.996C239.036 127.504 238.34 127.747 237.662 127.543C237.003 127.345 236.614 126.798 236.773 126.319C236.931 125.844 237.579 125.594 238.239 125.764C238.918 125.939 239.356 126.492 239.196 126.996Z" fill="#FEFFFF"/>
<path d="M239.196 123.048C246.185 123.892 246.314 124.297 245.778 124.362C245.241 124.427 243.467 128.314 245.107 128.711C246.747 129.108 247.805 125.804 247.805 125.804C247.805 125.804 245.362 121.516 245.319 121.531C245.276 121.547 241.837 121.628 241.837 121.628" fill="#DAE9FF"/>
</g>
<path d="M246.045 129.051C244.163 128.779 244.973 126.171 246.003 124.669C247.034 123.166 240.838 122.011 239.678 123.093C239.678 123.093 238.073 121.355 240.206 121.246C242.339 121.138 242.53 121.168 242.53 121.168L246.525 123.416L247.296 124.723L246.454 128.002L246.045 129.051Z" fill="#183CB5"/>
<mask id="mask30_375_20410" style="mask-type:luminance" maskUnits="userSpaceOnUse" x="241" y="125" width="3" height="3">
<path d="M242.108 126.09C241.324 127.507 242.644 128.318 243.502 126.998C244.326 125.512 242.928 124.818 242.108 126.09Z" fill="white"/>
</mask>
<g mask="url(#mask30_375_20410)">
<path d="M242.163 126.138C241.85 126.859 242.517 127.275 242.926 126.493C243.246 125.755 242.562 125.372 242.163 126.138Z" fill="#367DFE"/>
</g>
<mask id="mask31_375_20410" style="mask-type:luminance" maskUnits="userSpaceOnUse" x="239" y="123" width="2" height="3">
<path d="M239.301 124.528C238.592 125.814 239.674 126.478 240.439 125.28C241.181 123.937 240.036 123.369 239.301 124.528Z" fill="white"/>
</mask>
<g mask="url(#mask31_375_20410)">
<path d="M239.245 124.734C238.959 125.387 239.505 125.734 239.871 125.025C240.163 124.358 239.604 124.039 239.245 124.734Z" fill="#367DFE"/>
</g>
<path d="M240.299 122.558C241.775 123.074 241.765 123.922 240.784 123.633C239.861 123.361 239.407 122.247 240.299 122.558ZM243.59 124.063C245.511 124.474 245.685 125.429 244.412 125.212C243.22 125.009 242.438 123.816 243.59 124.063Z" fill="#367DFE"/>
<path d="M239.876 126.982C240.296 126.711 240.642 125.783 240.881 126.03C241.215 126.113 240.557 126.872 240.555 127.412C240.552 127.96 240.116 127.996 239.873 127.834C239.872 127.834 239.872 127.833 239.871 127.832C239.871 127.832 239.87 127.833 239.869 127.832C239.63 127.673 239.462 127.248 239.876 126.982Z" fill="#DAE9FF"/>
<path opacity="0.3" d="M240.931 128.281C240.833 128.753 241.194 129.279 241.752 129.465C242.329 129.656 242.903 129.414 243.014 128.913C243.127 128.409 242.723 127.861 242.131 127.698C241.559 127.54 241.029 127.805 240.931 128.281Z" fill="#FEFFFF"/>
<path d="M244.767 128.282C248.839 127.156 246.99 132.345 243.541 131.431L244.767 128.282Z" fill="#EEF6FF"/>
<path d="M238.878 128.448C238.837 128.453 238.799 128.472 238.77 128.502C238.741 128.533 238.722 128.573 238.717 128.617C238.598 129.729 239.447 130.164 240.138 129.76C241.342 129.156 240.133 128.294 238.878 128.448Z" fill="#FEFFFF"/>
<mask id="mask32_375_20410" style="mask-type:luminance" maskUnits="userSpaceOnUse" x="238" y="128" width="3" height="2">
<path d="M238.878 128.448C238.837 128.453 238.799 128.472 238.77 128.502C238.741 128.533 238.722 128.573 238.717 128.617C238.598 129.729 239.447 130.164 240.138 129.76C241.342 129.156 240.133 128.294 238.878 128.448Z" fill="white"/>
</mask>
<g mask="url(#mask32_375_20410)">
<path d="M240.478 129.923C240.502 130.968 238.294 131.007 238.755 129.545C239.111 128.813 240.351 128.906 240.478 129.923Z" fill="#FEFFFF"/>
<path d="M239.128 128.304C238.8 128.674 240.331 129.584 240.394 128.658L239.28 128.289" fill="#DAE9FF"/>
</g>
<path d="M245.539 129.184C245.838 129.283 245.733 130.097 245.018 130.159" stroke="#DAE9FF" stroke-linecap="round" stroke-linejoin="round"/>
<defs>
<linearGradient id="paint0_linear_375_20410" x1="167.031" y1="52.1358" x2="185.541" y2="43.8763" gradientUnits="userSpaceOnUse">
<stop stop-color="#FEFFFF"/>
<stop offset="1" stop-color="#EEF6FF"/>
</linearGradient>
</defs>
</svg>
