<svg width="71" height="32" viewBox="0 0 71 32" fill="none" xmlns="http://www.w3.org/2000/svg">
<mask id="mask0_531_20593" style="mask-type:luminance" maskUnits="userSpaceOnUse" x="0" y="0" width="71" height="32">
<path d="M70.431 0H0V32H70.431V0Z" fill="white"/>
</mask>
<g mask="url(#mask0_531_20593)">
<path d="M4.50146 0.097168C5.58685 -0.120321 6.71325 0.0241523 7.70947 0.508301C9.64394 1.39866 10.6748 3.36346 10.77 5.23975C10.9033 7.88157 8.58319 14.2061 7.6167 17.4478C9.82953 16.6726 14.5337 12.8031 15.3013 11.6616C15.8897 10.7955 16.0647 10.1319 15.8813 9.23584C15.7889 8.785 15.9876 8.83667 16.2222 8.90088C16.6737 9.03981 17.0913 9.27169 17.4487 9.58154C19.342 11.1038 19.7771 13.2537 18.7495 15.4653C17.8398 17.413 14.4477 20.0318 14.1919 20.2173C13.3467 20.8462 13.3969 21.0137 13.9341 21.8882C17.0155 26.9017 20.1456 28.7683 21.2515 28.4829C21.6648 28.3776 21.642 28.6272 21.4956 28.9438C20.2163 31.7359 17.3993 32.6763 14.4614 31.2769C12.9846 30.5734 12.2324 29.5926 11.2104 28.3726C9.72086 26.5949 8.41319 24.6813 7.06006 22.7993C6.91086 22.5982 6.75559 22.3959 6.52686 22.0864C4.90666 24.7458 3.93129 30.0356 3.83447 31.5942C3.80605 32.0594 3.58902 32.0938 3.1626 31.8569C1.55644 30.9749 0.62083 29.5438 0.148926 26.7515C-0.203485 24.6702 0.0981105 21.9665 0.731934 19.6353C1.99556 14.9784 3.32576 10.3305 4.60498 5.67627C4.84505 4.82818 4.96271 3.94946 4.95361 3.06787C4.94083 2.30169 4.74994 1.20289 4.3335 0.552246C4.16008 0.282573 4.12906 0.164232 4.50146 0.097168ZM24.6353 14.895C27.9595 14.8952 30.2308 17.6071 29.7075 20.937C29.1839 24.2669 26.066 26.9778 22.7417 26.978C19.4174 26.9778 17.1477 24.2741 17.6704 20.937C18.1941 17.6 21.3123 14.8952 24.6353 14.895ZM56.854 6.11279C58.1442 5.16535 59.2014 4.82321 60.7319 5.02295C62.5429 5.25854 63.3549 6.66422 62.9868 8.76025C62.6187 10.8564 61.8605 12.8486 61.2222 14.8647C60.5843 16.8805 59.8987 18.8907 59.647 20.9995C59.6045 21.3619 59.5707 21.7271 59.5532 22.0923C59.5078 22.9926 59.7729 23.4796 60.4067 23.688C61.6621 24.098 63.9933 19.9492 64.2437 16.3354C64.2921 15.632 64.328 15.309 65.145 15.1421C66.1765 14.9025 67.2287 14.7636 68.2866 14.7261C68.9575 14.6961 69.1996 15.1484 69.1187 15.8276C68.9916 16.9037 67.9851 20.2935 67.8853 20.9341C67.6614 22.3812 68.3132 23.5123 69.5171 23.2612L69.6353 23.2319C70.5557 22.9783 70.5514 23.2965 70.2573 24.0952C69.6714 25.7061 67.6864 27.1117 65.4722 26.6011C64.2978 26.3328 63.3178 25.223 63.1489 24.8892C62.9511 24.5025 62.8419 24.4797 62.4907 24.7808C60.8294 26.2104 58.7721 26.864 57.3335 26.6714C56.5109 26.5615 55.7964 26.213 55.4038 25.4868L55.3687 25.4272C54.1833 26.348 52.7314 26.8584 51.2329 26.8813C49.3713 26.8812 47.835 26.0249 46.9438 24.6968C46.8472 24.755 46.757 24.8238 46.6763 24.9028C45.3259 26.197 43.7636 26.9278 41.8774 26.6753C41.0545 26.5654 40.3395 26.2169 39.9458 25.4907C39.9345 25.4695 39.9229 25.451 39.9116 25.4312C38.7248 26.3508 37.273 26.86 35.7739 26.8813C32.4496 26.8813 30.1821 24.1727 30.7036 20.8354C31.2256 17.4981 34.3447 14.7944 37.6694 14.7944C38.7244 14.7802 39.76 15.0819 40.6431 15.6616C40.9727 15.7284 41.1318 15.3143 41.2241 14.9263C41.6449 13.1655 42.2219 11.4318 42.2944 9.60986C42.3669 7.86065 42.3225 7.30732 40.5884 7.02197C40.7476 6.61249 41.0749 6.35553 41.3989 6.11865C42.6896 5.17126 43.746 4.82907 45.2769 5.02881C47.0832 5.26436 47.9031 6.67389 47.5278 8.76416C47.1526 10.8544 46.3911 12.842 45.7544 14.8579C45.1176 16.8742 44.4328 18.8848 44.1812 20.9937C44.1371 21.3559 44.1021 21.7213 44.0864 22.0864C44.0424 22.9868 44.3074 23.4695 44.9399 23.6821C45.3663 23.8247 45.8864 23.7003 46.3198 23.3735C46.0744 22.5489 46.0198 21.6787 46.1597 20.8296C46.6818 17.4924 49.8012 14.7886 53.1245 14.7886C54.1798 14.7744 55.2156 15.0762 56.0991 15.6558C56.4273 15.7228 56.5868 15.3094 56.6792 14.9214C57.0998 13.1606 57.6785 11.427 57.7495 9.60498C57.8224 7.8557 57.778 7.30148 56.0444 7.01611C56.2033 6.60681 56.5314 6.34961 56.854 6.11279ZM39.4741 19.2017C39.7328 17.2126 38.9526 16.205 37.7388 16.9526C36.5249 17.7003 35.3335 19.9206 35.0776 21.9097C34.8218 23.8986 35.5982 24.9062 36.812 24.1587C38.0258 23.4111 39.2182 21.1921 39.4741 19.2017ZM54.9341 19.2017C55.1898 17.2128 54.4124 16.2053 53.1987 16.9526C51.9849 17.7003 50.7919 19.9206 50.5376 21.9097C50.2828 23.8987 51.0592 24.9064 52.2729 24.1587C53.4867 23.411 54.6783 21.1921 54.9341 19.2017ZM25.7046 16.9448C24.7361 16.4951 23.2034 17.7436 22.2808 19.7329C21.3581 21.7226 21.3953 23.7007 22.3638 24.1509C23.3323 24.6002 24.865 23.3521 25.7876 21.3628C26.7101 19.3733 26.6728 17.3952 25.7046 16.9448ZM67.5122 8.09326C67.9038 8.02125 68.3046 8.01705 68.6978 8.08057C69.6671 8.26753 70.2582 8.96088 70.2358 9.95947C70.2119 11.0239 69.8878 11.9763 69.0122 12.644C68.6276 12.9463 68.1744 13.149 67.6938 13.2349C67.2131 13.3206 66.7192 13.2867 66.2544 13.1362C65.3063 12.8623 64.807 12.1339 64.811 11.1108C64.8043 9.61996 65.9614 8.33154 67.5122 8.09326Z" fill="white"/>
</g>
</svg>
